<?xml version="1.0" encoding="iso-8859-1"?>
<!-- Generator: Adobe Illustrator 19.0.0, SVG Export Plug-In . SVG Version: 6.00 Build 0)  -->
<svg version="1.1" id="Capa_1" xmlns="http://www.w3.org/2000/svg" xmlns:xlink="http://www.w3.org/1999/xlink" x="0px" y="0px"
	 viewBox="0 0 480.004 480.004" style="enable-background:new 0 0 480.004 480.004;" xml:space="preserve">
<g>
	<g>
		<path d="M240.001,224.364c-52.996,0.057-95.943,43.004-96,96c0,53.019,42.981,96,96,96s96-42.981,96-96
			S293.02,224.364,240.001,224.364z M240.001,400.364c-44.183,0-80-35.817-80-80c0.049-44.163,35.837-79.951,80-80
			c44.183,0,80,35.817,80,80C320.001,364.546,284.184,400.364,240.001,400.364z"/>
	</g>
</g>
<g>
	<g>
		<path d="M293.591,295.339c-1.197-1.168-2.729-1.931-4.382-2.183l-28.944-4.424l-13.024-27.728
			c-1.88-3.999-6.645-5.716-10.643-3.837c-1.687,0.793-3.044,2.15-3.837,3.837l-13.024,27.728l-28.944,4.424
			c-4.368,0.666-7.369,4.746-6.703,9.114c0.252,1.653,1.015,3.185,2.183,4.382l21.184,21.712l-5.016,30.744
			c-0.708,4.361,2.253,8.471,6.614,9.179c1.767,0.287,3.579-0.027,5.146-0.891l25.8-14.232l25.8,14.256
			c1.181,0.658,2.512,1.003,3.864,1c4.418,0,8-3.581,8-8c0-0.432-0.035-0.862-0.104-1.288l-5.016-30.768l21.184-21.712
			C296.815,303.489,296.753,298.424,293.591,295.339z M258.273,320.076c-1.774,1.819-2.579,4.372-2.168,6.88l3.016,18.472
			l-15.256-8.424c-2.405-1.327-5.323-1.327-7.728,0l-15.256,8.424l3.016-18.472c0.411-2.508-0.394-5.061-2.168-6.88l-13.128-13.448
			l17.8-2.72c2.637-0.404,4.899-2.096,6.032-4.512l7.568-16.168l7.592,16.168c1.132,2.416,3.395,4.108,6.032,4.512l17.776,2.72
			L258.273,320.076z"/>
	</g>
</g>
<g>
	<g>
		<path d="M191.617,133.036l-40-120c-1.091-3.277-4.162-5.483-7.616-5.472h-136c-4.418-0.001-8,3.581-8.001,7.999
			c0,1.287,0.31,2.555,0.905,3.697l96,184c2.041,3.919,6.873,5.441,10.792,3.4c3.919-2.041,5.441-6.873,3.4-10.792L21.193,23.564
			h53.6l61.888,139.248c1.285,2.893,4.155,4.756,7.32,4.752c1.103-0.003,2.193-0.238,3.2-0.688c4.038-1.793,5.858-6.52,4.065-10.558
			c0-0.001-0.001-0.001-0.001-0.002L92.313,23.564h45.92l38.184,114.528c1.396,4.197,5.931,6.468,10.128,5.072
			C190.742,141.767,193.013,137.233,191.617,133.036z"/>
	</g>
</g>
<g>
	<g>
		<path d="M475.698,8.469c-1.142-0.595-2.41-0.905-3.697-0.905h-136c-3.442,0.003-6.496,2.206-7.584,5.472l-40,120
			c-1.398,4.191,0.866,8.721,5.056,10.12c4.191,1.392,8.717-0.875,10.112-5.064l38.184-114.528h45.92l-59,132.752
			c-1.794,4.038,0.025,8.765,4.062,10.559c0.001,0,0.001,0.001,0.002,0.001c1.022,0.457,2.129,0.691,3.248,0.688
			c3.165,0.004,6.035-1.859,7.32-4.752l61.88-139.248h53.6l-89.896,172.304c-2.041,3.919-0.519,8.751,3.4,10.792
			c3.919,2.041,8.751,0.519,10.792-3.4l96-184C481.138,15.341,479.616,10.51,475.698,8.469z"/>
	</g>
</g>
<g>
	<g>
		<path d="M396.969,305.171c-1.727-2.836-4.108-5.216-6.944-6.944l-20.56-12.72c-2.231-1.294-3.04-4.121-1.832-6.4l11.296-21.04
			c3.406-6.29,3.306-13.897-0.264-20.096c-3.651-6.39-10.356-10.427-17.712-10.664l-24.288-0.952c-2.676-0.051-4.874-2.13-5.072-4.8
			l-0.968-23.72c-0.283-7.139-4.209-13.633-10.4-17.2c-6.337-3.719-14.137-3.936-20.672-0.576l-21.552,11.048
			c-2.457,1.279-5.482,0.512-7.032-1.784l-13.032-20.088c-6.511-9.906-19.82-12.657-29.726-6.146
			c-2.446,1.608-4.538,3.7-6.146,6.146l-13.032,20.088c-1.55,2.296-4.575,3.063-7.032,1.784l-21.544-11.032
			c-6.533-3.37-14.337-3.152-20.672,0.576c-6.188,3.565-10.115,10.056-10.4,17.192l-0.968,23.728c-0.19,2.67-2.388,4.753-5.064,4.8
			l-24.296,0.952c-7.354,0.226-14.064,4.255-17.72,10.64c-3.572,6.203-3.675,13.814-0.272,20.112l11.296,21.04
			c1.21,2.277,0.404,5.103-1.824,6.4l-20.576,12.728c-9.811,5.976-12.92,18.774-6.944,28.584c1.727,2.836,4.108,5.216,6.944,6.944
			l20.56,12.72c2.231,1.295,3.04,4.121,1.832,6.4l-11.296,21.032c-3.406,6.291-3.306,13.897,0.264,20.096
			c3.65,6.392,10.355,10.432,17.712,10.672l24.288,0.944c2.676,0.05,4.874,2.13,5.072,4.8l0.968,23.72
			c0.283,7.139,4.209,13.633,10.4,17.2c6.338,3.721,14.14,3.935,20.672,0.568l21.536-11.024c2.458-1.278,5.483-0.515,7.04,1.776
			l13.056,20.088c6.511,9.906,19.82,12.657,29.726,6.146c2.446-1.608,4.538-3.7,6.146-6.146l13.032-20.08
			c1.552-2.293,4.575-3.06,7.032-1.784l21.544,11.024c6.535,3.36,14.335,3.143,20.672-0.576c6.188-3.565,10.115-10.056,10.4-17.192
			l0.968-23.72c0.19-2.67,2.388-4.753,5.064-4.8l24.296-0.952c7.351-0.239,14.051-4.273,17.704-10.656
			c3.572-6.203,3.675-13.814,0.272-20.112l-11.296-21.032c-1.21-2.277-0.404-5.103,1.824-6.4l20.576-12.728
			C399.836,327.78,402.945,314.982,396.969,305.171z M383.374,318.406c-0.422,0.734-1.031,1.343-1.765,1.765l-20.568,12.696
			c-9.375,5.777-12.655,17.839-7.496,27.568l11.296,21.032c0.799,1.433,0.775,3.182-0.064,4.592c-0.916,1.594-2.602,2.59-4.44,2.624
			l-24.296,0.952c-10.988,0.399-19.851,9.124-20.424,20.104l-0.968,23.72c-0.073,1.677-1.016,3.193-2.488,4
			c-1.631,0.965-3.644,1.022-5.328,0.152l-21.536-11.024c-9.753-5.074-21.765-1.909-27.752,7.312l-13.032,20.08
			c-1.702,2.492-5.102,3.132-7.594,1.43c-0.562-0.384-1.047-0.869-1.43-1.43l-13.032-20.016c-3.93-6.059-10.666-9.71-17.888-9.696
			c-3.432,0.005-6.813,0.828-9.864,2.4l-21.536,10.976c-1.68,0.87-3.689,0.815-5.32-0.144c-1.475-0.805-2.421-2.322-2.496-4
			l-0.968-23.728c-0.588-10.976-9.448-19.694-20.432-20.104l-24.288-0.944c-1.84-0.034-3.528-1.03-4.448-2.624
			c-0.83-1.413-0.851-3.159-0.056-4.592l11.296-21.032c5.158-9.733,1.875-21.799-7.504-27.576l-20.56-12.72
			c-2.295-1.326-3.081-4.262-1.754-6.558c0.421-0.728,1.026-1.333,1.754-1.754l20.576-12.736
			c9.375-5.777,12.652-17.842,7.488-27.568l-11.256-21.072c-0.799-1.433-0.775-3.182,0.064-4.592
			c0.916-1.593,2.603-2.587,4.44-2.616l24.296-0.952c10.986-0.403,19.847-9.126,20.424-20.104l0.968-23.728
			c0.073-1.677,1.016-3.193,2.488-4c1.63-0.971,3.648-1.026,5.328-0.144l21.544,11.024c9.752,5.018,21.719,1.846,27.704-7.344
			l13.032-20.072c1.702-2.492,5.102-3.132,7.594-1.43c0.562,0.384,1.047,0.869,1.43,1.43l13.032,20.088
			c5.999,9.205,17.997,12.366,27.752,7.312l21.536-11.024c1.68-0.873,3.69-0.818,5.32,0.144c1.469,0.811,2.414,2.324,2.496,4
			l0.968,23.72c0.584,10.978,9.446,19.697,20.432,20.104l24.288,0.952c1.84,0.034,3.528,1.03,4.448,2.624
			c0.831,1.41,0.853,3.154,0.056,4.584l-11.296,21.096c-5.157,9.731-1.874,21.794,7.504,27.568l20.56,12.72
			C383.906,313.174,384.697,316.109,383.374,318.406z"/>
	</g>
</g>
<g>
</g>
<g>
</g>
<g>
</g>
<g>
</g>
<g>
</g>
<g>
</g>
<g>
</g>
<g>
</g>
<g>
</g>
<g>
</g>
<g>
</g>
<g>
</g>
<g>
</g>
<g>
</g>
<g>
</g>
</svg>
