<svg id="Capa_1" enable-background="new 0 0 512 512" height="512" viewBox="0 0 512 512" width="512" xmlns="http://www.w3.org/2000/svg"><g><path d="m400.322 287h53.678v-196h-63.422c-9.836-24.385-26.393-46.081-47.514-61.961-25.266-18.997-55.373-29.039-87.064-29.039s-61.798 10.042-87.064 29.039c-21.121 15.88-37.678 37.576-47.514 61.961h-63.422v196h53.678c4.351 45.201 29.538 84.403 65.819 107.857-3.335 29.677-23.205 55.688-51.549 66.359l-32.948 12.403v38.381h326v-38.381l-32.947-12.403c-28.344-10.671-48.215-36.681-51.55-66.359 36.281-23.454 61.468-62.656 65.819-107.857zm-213.358-233.983c20.027-15.058 43.9-23.017 69.036-23.017s49.009 7.959 69.036 23.017c13.461 10.121 24.583 23.21 32.485 37.983h-203.042c7.902-14.772 19.025-27.862 32.485-37.983zm-98.964 67.983h336v136h-132.787l-35.213-35.213-35.213 35.213h-132.787zm235.613 327.807c9.537 13.78 21.893 25.051 36.272 33.193h-207.771c14.38-8.142 26.736-19.413 36.272-33.193 8.401-12.14 14.19-25.647 17.199-39.852 15.711 5.844 32.695 9.045 50.415 9.045s34.704-3.201 50.414-9.045c3.009 14.205 8.798 27.712 17.199 39.852zm-67.613-60.807c-58.672 0-107.217-44.168-114.146-101h91.36l22.786-22.787 22.787 22.787h91.36c-6.93 56.832-55.475 101-114.147 101z"/><path d="m262 328h-12c-6.065 0-11-4.935-11-11h-30c0 22.607 18.393 41 41 41h12c22.607 0 41-18.393 41-41h-30c0 6.065-4.935 11-11 11z"/><path d="m151.5 159h209v30h-209z"/></g></svg>